<svg width="32" height="32" viewBox="0 0 32 32" fill="none" xmlns="http://www.w3.org/2000/svg">
<path d="M2.5 24.5001L3 10.0001V9.50006H9L11.5 7.00006L16 6.50006V26.5001H4L2.5 24.5001Z" fill="#5946D7" fill-opacity="0.1"/>
<path d="M22.6666 9.33331V6.66665C22.6666 5.93065 23.264 5.33331 24 5.33331H26.6666C27.4026 5.33331 28 5.93065 28 6.66665V9.33331" stroke="#2E1066" stroke-width="2" stroke-linecap="round" stroke-linejoin="round"/>
<path d="M22.6666 9.33331V6.66665C22.6666 5.93065 23.264 5.33331 24 5.33331H26.6666C27.4026 5.33331 28 5.93065 28 6.66665V9.33331" stroke="#410F9E" stroke-width="2" stroke-linecap="round" stroke-linejoin="round"/>
<path d="M22.6666 9.33331V6.66665C22.6666 5.93065 23.264 5.33331 24 5.33331H26.6666C27.4026 5.33331 28 5.93065 28 6.66665V9.33331" stroke="#453888" stroke-width="2" stroke-linecap="round" stroke-linejoin="round"/>
<path d="M22.6666 9.33331V6.66665C22.6666 5.93065 23.264 5.33331 24 5.33331H26.6666C27.4026 5.33331 28 5.93065 28 6.66665V9.33331" stroke="#5946D7" stroke-width="2" stroke-linecap="round" stroke-linejoin="round"/>
<path d="M22.6667 15.3333V19.3333" stroke="#2E1066" stroke-width="2" stroke-linecap="round" stroke-linejoin="round"/>
<path d="M22.6667 15.3333V19.3333" stroke="#410F9E" stroke-width="2" stroke-linecap="round" stroke-linejoin="round"/>
<path d="M22.6667 15.3333V19.3333" stroke="#453888" stroke-width="2" stroke-linecap="round" stroke-linejoin="round"/>
<path d="M22.6667 15.3333V19.3333" stroke="#5946D7" stroke-width="2" stroke-linecap="round" stroke-linejoin="round"/>
<path d="M24.6666 17.3333H20.6666" stroke="#2E1066" stroke-width="2" stroke-linecap="round" stroke-linejoin="round"/>
<path d="M24.6666 17.3333H20.6666" stroke="#410F9E" stroke-width="2" stroke-linecap="round" stroke-linejoin="round"/>
<path d="M24.6666 17.3333H20.6666" stroke="#453888" stroke-width="2" stroke-linecap="round" stroke-linejoin="round"/>
<path d="M24.6666 17.3333H20.6666" stroke="#5946D7" stroke-width="2" stroke-linecap="round" stroke-linejoin="round"/>
<path d="M11.3333 17.3333H7.33325" stroke="#2E1066" stroke-width="2" stroke-linecap="round" stroke-linejoin="round"/>
<path d="M11.3333 17.3333H7.33325" stroke="#410F9E" stroke-width="2" stroke-linecap="round" stroke-linejoin="round"/>
<path d="M11.3333 17.3333H7.33325" stroke="#453888" stroke-width="2" stroke-linecap="round" stroke-linejoin="round"/>
<path d="M11.3333 17.3333H7.33325" stroke="#5946D7" stroke-width="2" stroke-linecap="round" stroke-linejoin="round"/>
<path d="M4 9.33331V6.66665C4 5.93065 4.59733 5.33331 5.33333 5.33331H8C8.736 5.33331 9.33333 5.93065 9.33333 6.66665V9.33331" stroke="#2E1066" stroke-width="2" stroke-linecap="round" stroke-linejoin="round"/>
<path d="M4 9.33331V6.66665C4 5.93065 4.59733 5.33331 5.33333 5.33331H8C8.736 5.33331 9.33333 5.93065 9.33333 6.66665V9.33331" stroke="#410F9E" stroke-width="2" stroke-linecap="round" stroke-linejoin="round"/>
<path d="M4 9.33331V6.66665C4 5.93065 4.59733 5.33331 5.33333 5.33331H8C8.736 5.33331 9.33333 5.93065 9.33333 6.66665V9.33331" stroke="#453888" stroke-width="2" stroke-linecap="round" stroke-linejoin="round"/>
<path d="M4 9.33331V6.66665C4 5.93065 4.59733 5.33331 5.33333 5.33331H8C8.736 5.33331 9.33333 5.93065 9.33333 6.66665V9.33331" stroke="#5946D7" stroke-width="2" stroke-linecap="round" stroke-linejoin="round"/>
<path fill-rule="evenodd" clip-rule="evenodd" d="M22.6666 9.33329H28C28.736 9.33329 29.3333 9.93063 29.3333 10.6666V24C29.3333 25.4733 28.14 26.6666 26.6666 26.6666H5.33329C3.85996 26.6666 2.66663 25.4733 2.66663 24V10.6666C2.66663 9.93063 3.26396 9.33329 3.99996 9.33329H9.33329L11.6093 7.05729C11.86 6.80663 12.1986 6.66663 12.552 6.66663H19.448C19.8013 6.66663 20.1413 6.80663 20.3906 7.05729L22.6666 9.33329V9.33329Z" stroke="#2E1066" stroke-width="2" stroke-linecap="round" stroke-linejoin="round"/>
<path fill-rule="evenodd" clip-rule="evenodd" d="M22.6666 9.33329H28C28.736 9.33329 29.3333 9.93063 29.3333 10.6666V24C29.3333 25.4733 28.14 26.6666 26.6666 26.6666H5.33329C3.85996 26.6666 2.66663 25.4733 2.66663 24V10.6666C2.66663 9.93063 3.26396 9.33329 3.99996 9.33329H9.33329L11.6093 7.05729C11.86 6.80663 12.1986 6.66663 12.552 6.66663H19.448C19.8013 6.66663 20.1413 6.80663 20.3906 7.05729L22.6666 9.33329V9.33329Z" stroke="#410F9E" stroke-width="2" stroke-linecap="round" stroke-linejoin="round"/>
<path fill-rule="evenodd" clip-rule="evenodd" d="M22.6666 9.33329H28C28.736 9.33329 29.3333 9.93063 29.3333 10.6666V24C29.3333 25.4733 28.14 26.6666 26.6666 26.6666H5.33329C3.85996 26.6666 2.66663 25.4733 2.66663 24V10.6666C2.66663 9.93063 3.26396 9.33329 3.99996 9.33329H9.33329L11.6093 7.05729C11.86 6.80663 12.1986 6.66663 12.552 6.66663H19.448C19.8013 6.66663 20.1413 6.80663 20.3906 7.05729L22.6666 9.33329V9.33329Z" stroke="#453888" stroke-width="2" stroke-linecap="round" stroke-linejoin="round"/>
<path fill-rule="evenodd" clip-rule="evenodd" d="M22.6666 9.33329H28C28.736 9.33329 29.3333 9.93063 29.3333 10.6666V24C29.3333 25.4733 28.14 26.6666 26.6666 26.6666H5.33329C3.85996 26.6666 2.66663 25.4733 2.66663 24V10.6666C2.66663 9.93063 3.26396 9.33329 3.99996 9.33329H9.33329L11.6093 7.05729C11.86 6.80663 12.1986 6.66663 12.552 6.66663H19.448C19.8013 6.66663 20.1413 6.80663 20.3906 7.05729L22.6666 9.33329V9.33329Z" stroke="#5946D7" stroke-width="2" stroke-linecap="round" stroke-linejoin="round"/>
</svg>
